<?xml version="1.0" encoding="utf-8"?>
<!-- Generator: Adobe Illustrator 15.0.0, SVG Export Plug-In . SVG Version: 6.00 Build 0)  -->
<!DOCTYPE svg PUBLIC "-//W3C//DTD SVG 1.1//EN" "http://www.w3.org/Graphics/SVG/1.1/DTD/svg11.dtd">
<svg version="1.1" id="Layer_1" xmlns="http://www.w3.org/2000/svg" xmlns:xlink="http://www.w3.org/1999/xlink" x="0px" y="0px"
	 width="36.043px" height="36.043px" viewBox="0 0 36.043 36.043" enable-background="new 0 0 36.043 36.043" xml:space="preserve">
<path fill="#CDEDE4" d="M3.021,7.043c0-2.75,2.71-5,5.46-5h20c2.75,0,4.54,2.25,4.54,5v21c0,2.75-1.79,5-4.54,5h-20
	c-2.75,0-5.46-2.25-5.46-5V7.043z M16.396,27.723c0.559,0.528,1.212,0.793,1.959,0.793c0.757,0,1.415-0.265,1.975-0.793
	c0.559-0.529,0.836-1.162,0.836-1.899c0-0.738-0.277-1.376-0.836-1.915c-0.56-0.539-1.218-0.809-1.975-0.809
	c-0.747,0-1.4,0.27-1.959,0.809c-0.558,0.539-0.837,1.177-0.837,1.915C15.56,26.561,15.838,27.193,16.396,27.723z M15.742,10.99
	c0.141,0.606,0.318,1.319,0.532,2.135c0.203,0.772,0.438,1.609,0.698,2.766c0.263,1.154,0.538,3.152,0.829,4.152h1.123
	c0.291-1,0.566-3.02,0.828-4.16c0.264-1.141,0.496-2.034,0.699-2.807c0.186-0.709,0.355-1.372,0.51-2.051
	c0.156-0.678,0.233-1.171,0.233-1.513c0-0.692-0.276-1.274-0.83-1.764c-0.554-0.49-1.219-0.73-1.995-0.73
	c-0.767,0-1.432,0.247-1.995,0.736c-0.563,0.489-0.845,1.081-0.845,1.773C15.53,9.895,15.601,10.384,15.742,10.99z"/>
</svg>
